<?xml version="1.0" standalone="no"?><!DOCTYPE svg PUBLIC "-//W3C//DTD SVG 1.1//EN" "http://www.w3.org/Graphics/SVG/1.1/DTD/svg11.dtd"><svg width="429.00000000000006" height="51.931376677481545" viewBox="0 0 369.7027027027027 44.75331075230076" class="css-1j8o68f" version="1.1" xmlns="http://www.w3.org/2000/svg" xmlns:xlink="http://www.w3.org/1999/xlink" style="block-size:51.9219px;height:51.9219px;inline-size:429px;perspective-origin:214.5px 25.9531px;touch-action:none;transform-origin:214.5px 25.9609px;width:429px;"><defs id="SvgjsDefs1376" style="block-size:auto;height:auto;inline-size:auto;overflow-clip-margin:0px;overflow-x:visible;overflow-y:visible;perspective-origin:0px 0px;transform-origin:0px 0px;width:auto;"><linearGradient id="SvgjsLinearGradient1381" style="block-size:auto;height:auto;inline-size:auto;overflow-clip-margin:0px;overflow-x:visible;overflow-y:visible;perspective-origin:0px 0px;transform-origin:0px 0px;width:auto;"><stop id="SvgjsStop1382" stop-color="#2d388a" offset="0" style="block-size:auto;height:auto;inline-size:auto;overflow-clip-margin:0px;overflow-x:visible;overflow-y:visible;perspective-origin:50% 50%;stop-color:rgb(45, 56, 138);transform-origin:0px 0px;width:auto;"/><stop id="SvgjsStop1383" stop-color="#00aeef" offset="1" style="block-size:auto;height:auto;inline-size:auto;overflow-clip-margin:0px;overflow-x:visible;overflow-y:visible;perspective-origin:50% 50%;stop-color:rgb(0, 174, 239);transform-origin:0px 0px;width:auto;"/></linearGradient></defs><g id="SvgjsG1377" featurekey="symbolFeature-0" transform="matrix(0.5191799575024624,0,0,0.5191799575024624,-1.9209658675155403,-2.595899787512312)" fill="url(#SvgjsLinearGradient1381)" style="block-size:auto;fill:url(&quot;#SvgjsLinearGradient1381&quot;);height:auto;inline-size:auto;overflow-clip-margin:0px;overflow-x:visible;overflow-y:visible;perspective-origin:0px 0px;touch-action:none;transform:matrix(0.51918, 0, 0, 0.51918, -1.92097, -2.5959);transform-origin:0px 0px;user-select:none;width:auto;"><metadata xmlns="http://www.w3.org/2000/svg" style="block-size:auto;fill:url(&quot;#SvgjsLinearGradient1381&quot;);height:auto;inline-size:auto;overflow-clip-margin:0px;overflow-x:visible;overflow-y:visible;perspective-origin:50% 50%;transform-origin:0px 0px;user-select:none;width:auto;"><!--?xpacket begin="&;" id="W5M0MpCehiHzreSzNTczkc9d"?--><x:xmpmeta xmlns:x="adobe:ns:meta/" x:xmptk="Adobe XMP Core 5.6-c014 79.156821, 2014/08/29-03:07:50        " style="block-size:auto;fill:url(&quot;#SvgjsLinearGradient1381&quot;);height:auto;inline-size:auto;overflow-clip-margin:0px;overflow-x:visible;overflow-y:visible;perspective-origin:50% 50%;transform-origin:0px 0px;user-select:none;width:auto;"/><!--?xpacket end="w"?--></metadata><path xmlns="http://www.w3.org/2000/svg" d="M85.2,87.7c0.1-0.3,0.2-0.6,0.2-1V48.2c0-1.6-1.3-2.8-2.8-2.8H15.4c-1.6,0-2.8,1.3-2.8,2.8v38.5c0,0.4,0.1,0.7,0.2,1H3.7  v0.7c0,1.5,1.3,2.8,2.8,2.8H92c1.6,0,2.8-1.3,2.8-2.8v-0.7H85.2z M49.5,48c0.4,0,0.8,0.3,0.8,0.8c0,0.4-0.3,0.8-0.8,0.8  s-0.8-0.4-0.8-0.8S49,48,49.5,48z M81.2,84.9H17V51.7h64.2V84.9z" style="block-size:auto;d:path(&quot;M 85.2 87.7 C 85.3 87.4 85.4 87.1 85.4 86.7 V 48.2 C 85.4 46.6 84.1 45.4 82.6 45.4 H 15.4 C 13.8 45.4 12.6 46.7 12.6 48.2 V 86.7 C 12.6 87.1 12.7 87.4 12.8 87.7 H 3.7 V 88.4 C 3.7 89.9 5 91.2 6.5 91.2 H 92 C 93.6 91.2 94.8 89.9 94.8 88.4 V 87.7 H 85.2 Z M 49.5 48 C 49.9 48 50.3 48.3 50.3 48.8 C 50.3 49.2 50 49.6 49.5 49.6 S 48.7 49.2 48.7 48.8 S 49 48 49.5 48 Z M 81.2 84.9 H 17 V 51.7 H 81.2 V 84.9 Z&quot;);fill:url(&quot;#SvgjsLinearGradient1381&quot;);height:auto;inline-size:auto;overflow-clip-margin:0px;overflow-x:visible;overflow-y:visible;perspective-origin:0px 0px;transform-origin:0px 0px;user-select:none;width:auto;"/><path xmlns="http://www.w3.org/2000/svg" d="M49.2,7c8.6,0,16.5,2.7,23.1,7.2l1.2-1.6C66.6,7.8,58.2,5,49.2,5c-9,0-17.4,2.8-24.2,7.6l1.2,1.6C32.7,9.7,40.7,7,49.2,7z" style="block-size:auto;d:path(&quot;M 49.2 7 C 57.8 7 65.7 9.7 72.3 14.2 L 73.5 12.6 C 66.6 7.8 58.2 5 49.2 5 C 40.2 5 31.8 7.8 25 12.6 L 26.2 14.2 C 32.7 9.7 40.7 7 49.2 7 Z&quot;);fill:url(&quot;#SvgjsLinearGradient1381&quot;);height:auto;inline-size:auto;overflow-clip-margin:0px;overflow-x:visible;overflow-y:visible;perspective-origin:0px 0px;transform-origin:0px 0px;user-select:none;width:auto;"/><path xmlns="http://www.w3.org/2000/svg" d="M49.2,15.3c6.7,0,13,2.1,18.2,5.6l1.2-1.6c-5.5-3.8-12.2-6-19.4-6s-13.8,2.2-19.4,6l1.2,1.6C36.2,17.4,42.5,15.3,49.2,15.3z  " style="block-size:auto;d:path(&quot;M 49.2 15.3 C 55.9 15.3 62.2 17.4 67.4 20.9 L 68.6 19.3 C 63.1 15.5 56.4 13.3 49.2 13.3 S 35.4 15.5 29.8 19.3 L 31 20.9 C 36.2 17.4 42.5 15.3 49.2 15.3 Z&quot;);fill:url(&quot;#SvgjsLinearGradient1381&quot;);height:auto;inline-size:auto;overflow-clip-margin:0px;overflow-x:visible;overflow-y:visible;perspective-origin:0px 0px;transform-origin:0px 0px;user-select:none;width:auto;"/><path xmlns="http://www.w3.org/2000/svg" d="M49.2,23.7c4.9,0,9.5,1.5,13.3,4l1.2-1.6c-4.1-2.8-9.1-4.4-14.5-4.4c-5.3,0-10.3,1.6-14.5,4.4l1.2,1.6  C39.7,25.1,44.3,23.7,49.2,23.7z" style="block-size:auto;d:path(&quot;M 49.2 23.7 C 54.1 23.7 58.7 25.2 62.5 27.7 L 63.7 26.1 C 59.6 23.3 54.6 21.7 49.2 21.7 C 43.9 21.7 38.9 23.3 34.7 26.1 L 35.9 27.7 C 39.7 25.1 44.3 23.7 49.2 23.7 Z&quot;);fill:url(&quot;#SvgjsLinearGradient1381&quot;);height:auto;inline-size:auto;overflow-clip-margin:0px;overflow-x:visible;overflow-y:visible;perspective-origin:0px 0px;transform-origin:0px 0px;user-select:none;width:auto;"/><path xmlns="http://www.w3.org/2000/svg" d="M49.2,32c3.1,0,5.9,0.9,8.4,2.4l1.2-1.6C56,31,52.7,30,49.2,30c-3.5,0-6.8,1-9.5,2.8l1.2,1.6C43.3,32.9,46.1,32,49.2,32z" style="block-size:auto;d:path(&quot;M 49.2 32 C 52.3 32 55.1 32.9 57.6 34.4 L 58.8 32.8 C 56 31 52.7 30 49.2 30 C 45.7 30 42.4 31 39.7 32.8 L 40.9 34.4 C 43.3 32.9 46.1 32 49.2 32 Z&quot;);fill:url(&quot;#SvgjsLinearGradient1381&quot;);height:auto;inline-size:auto;overflow-clip-margin:0px;overflow-x:visible;overflow-y:visible;perspective-origin:0px 0px;transform-origin:0px 0px;user-select:none;width:auto;"/><path xmlns="http://www.w3.org/2000/svg" d="M49.2,40.3c1.3,0,2.4,0.3,3.5,0.9l1.2-1.6c-1.4-0.8-2.9-1.2-4.6-1.2c-1.7,0-3.3,0.5-4.6,1.2l1.2,1.6  C46.8,40.6,48,40.3,49.2,40.3z" style="block-size:auto;d:path(&quot;M 49.2 40.3 C 50.5 40.3 51.6 40.6 52.7 41.2 L 53.9 39.6 C 52.5 38.8 51 38.4 49.3 38.4 C 47.6 38.4 46 38.9 44.7 39.6 L 45.9 41.2 C 46.8 40.6 48 40.3 49.2 40.3 Z&quot;);fill:url(&quot;#SvgjsLinearGradient1381&quot;);height:auto;inline-size:auto;overflow-clip-margin:0px;overflow-x:visible;overflow-y:visible;perspective-origin:0px 0px;transform-origin:0px 0px;user-select:none;width:auto;"/></g><g id="SvgjsG1378" featurekey="nameFeature-0" transform="matrix(0.9083624762136299,0,0,0.9083624762136299,65.90996498522955,-0.9003479819996318)" fill="#111111" style="block-size:auto;fill:rgb(17, 17, 17);height:auto;inline-size:auto;overflow-clip-margin:0px;overflow-x:visible;overflow-y:visible;perspective-origin:0px 0px;touch-action:none;transform:matrix(0.908363, 0, 0, 0.908363, 65.91, -0.900348);transform-origin:0px 0px;user-select:none;width:auto;"><path d="M4.92 40 l-3.72 -3.72 l0 -20.56 l3.72 -3.72 l9.08 0 l3.72 3.72 l0 20.56 l-3.72 3.72 l-9.08 0 z M7 34.96 l4.92 0 l0.76 -0.76 l0 -16.4 l-0.76 -0.76 l-4.92 0 l-0.76 0.76 l0 16.4 z M27.472 40 l0 -4.48 l0.84 -0.56 l0 -17.92 l-0.84 0 l-0.56 0.84 l-4.48 0 l0 -5.88 l16.8 0 l0 5.88 l-4.48 0 l-0.56 -0.84 l-0.84 0 l0 17.92 l0.84 0.56 l0 4.48 l-6.72 0 z M48.984 40 l0 -4.48 l0.84 -0.56 l0 -17.92 l-0.84 0 l-0.56 0.84 l-4.48 0 l0 -5.88 l16.8 0 l0 5.88 l-4.48 0 l-0.56 -0.84 l-0.84 0 l0 17.92 l0.84 0.56 l0 4.48 l-6.72 0 z M64.656 40 l0 -4.48 l0.84 -0.56 l3.64 -17.92 l-0.84 -0.56 l0 -4.48 l10.64 0 l0 4.48 l-0.84 0.56 l3.64 17.92 l0.84 0.56 l0 4.48 l-4.96 0 l-1.24 -6.16 l-5.52 0 l-1.24 6.16 l-4.96 0 z M71.896 28.8 l3.44 0 l-1.72 -8.56 z M90.008 40 l-3.6 -23.04 l-0.72 -0.48 l0 -4.48 l5.04 0 l2.52 16.12 l2.52 -16.12 l4.76 0 l2.52 16.12 l2.52 -16.12 l5.04 0 l0 4.48 l-0.72 0.48 l-3.6 23.04 l-6.48 0 l-1.64 -10.6 l-1.68 10.6 l-6.48 0 z M113.72 40 l0 -4.48 l0.84 -0.56 l3.64 -17.92 l-0.84 -0.56 l0 -4.48 l10.64 0 l0 4.48 l-0.84 0.56 l3.64 17.92 l0.84 0.56 l0 4.48 l-4.96 0 l-1.24 -6.16 l-5.52 0 l-1.24 6.16 l-4.96 0 z M120.96 28.8 l3.44 0 l-1.72 -8.56 z M148.784 40 l-3.72 -3.72 l0 -20.56 l3.72 -3.72 l8.8 0 l3.72 3.72 l0 5.24 l-5.04 0 l0 -3.16 l-0.76 -0.76 l-4.64 0 l-0.76 0.76 l0 16.4 l0.76 0.76 l4.64 0 l0.76 -0.76 l0 -3.16 l5.04 0 l0 5.24 l-3.72 3.72 l-8.8 0 z M169.736 40 l-3.72 -3.72 l0 -20.56 l3.72 -3.72 l9.08 0 l3.72 3.72 l0 20.56 l-3.72 3.72 l-9.08 0 z M171.816 34.96 l4.92 0 l0.76 -0.76 l0 -16.4 l-0.76 -0.76 l-4.92 0 l-0.76 0.76 l0 16.4 z M187.248 40 l0 -4.48 l0.84 -0.56 l0 -17.92 l-0.84 -0.56 l0 -4.48 l6.2 0 l4.16 10.6 l4.16 -10.6 l6.2 0 l0 4.48 l-0.84 0.56 l0 17.92 l0.84 0.56 l0 4.48 l-6.72 0 l0 -4.48 l0.84 -0.56 l0 -9.96 l-2.48 6.32 l-4 0 l-2.48 -6.32 l0 9.96 l0.84 0.56 l0 4.48 l-6.72 0 z M212.68 40 l0 -4.48 l0.84 -0.56 l0 -17.92 l-0.84 -0.56 l0 -4.48 l12.8 0 l3.72 3.72 l0 10.76 l-3.72 3.72 l-6.92 0 l0 4.76 l0.84 0.56 l0 4.48 l-6.72 0 z M218.56000000000003 25.16 l4.84 0 l0.76 -0.76 l0 -6.6 l-0.76 -0.76 l-4.84 0 l0 8.12 z M238.472 40 l-3.72 -3.72 l0 -19.24 l-0.84 -0.56 l0 -4.48 l6.72 0 l0 4.48 l-0.84 0.56 l0 17.16 l0.76 0.76 l4.64 0 l0.76 -0.76 l0 -17.16 l-0.84 -0.56 l0 -4.48 l6.72 0 l0 4.48 l-0.84 0.56 l0 19.24 l-3.72 3.72 l-8.8 0 z M261.584 40 l0 -4.48 l0.84 -0.56 l0 -17.92 l-0.84 0 l-0.56 0.84 l-4.48 0 l0 -5.88 l16.8 0 l0 5.88 l-4.48 0 l-0.56 -0.84 l-0.84 0 l0 17.92 l0.84 0.56 l0 4.48 l-6.72 0 z M278.056 40 l0 -4.48 l0.84 -0.56 l0 -17.92 l-0.84 -0.56 l0 -4.48 l14.56 0 l0 5.88 l-4.48 0 l-0.56 -0.84 l-3.64 0 l0 6.44 l6.44 0 l0 5.04 l-6.44 0 l0 6.44 l3.64 0 l0.56 -0.84 l4.48 0 l0 5.88 l-14.56 0 z M307.52799999999996 40 l0 -4.48 l0.72 -0.48 l-1.4 -5.4 l-3.64 0 l0 5.32 l0.84 0.56 l0 4.48 l-6.72 0 l0 -4.48 l0.84 -0.56 l0 -17.92 l-0.84 -0.56 l0 -4.48 l12.8 0 l3.72 3.72 l0 10.2 l-2.16 2.2 l1.72 6.68 l1 0.72 l0 4.48 l-6.88 0 z M303.20799999999997 24.6 l4.84 0 l0.76 -0.76 l0 -6.04 l-0.76 -0.76 l-4.84 0 l0 7.56 z M322.48 40 l-3.72 -3.72 l0 -5.24 l5.04 0 l0 3.16 l0.76 0.76 l4.08 0 l0.76 -0.76 l0 -4.92 l-0.76 -0.76 l-6.16 0 l-3.72 -3.72 l0 -9.08 l3.72 -3.72 l8.24 0 l3.72 3.72 l0 5.24 l-5.04 0 l0 -3.16 l-0.76 -0.76 l-4.08 0 l-0.76 0.76 l0 4.92 l0.76 0.76 l6.16 0 l3.72 3.72 l0 9.08 l-3.72 3.72 l-8.24 0 z" style="block-size:auto;d:path(&quot;M 4.92 40 L 1.2 36.28 L 1.2 15.72 L 4.92 12 L 14 12 L 17.72 15.72 L 17.72 36.28 L 14 40 L 4.92 40 Z M 7 34.96 L 11.92 34.96 L 12.68 34.2 L 12.68 17.8 L 11.92 17.04 L 7 17.04 L 6.24 17.8 L 6.24 34.2 Z M 27.472 40 L 27.472 35.52 L 28.312 34.96 L 28.312 17.04 L 27.472 17.04 L 26.912 17.88 L 22.432 17.88 L 22.432 12 L 39.232 12 L 39.232 17.88 L 34.752 17.88 L 34.192 17.04 L 33.352 17.04 L 33.352 34.96 L 34.192 35.52 L 34.192 40 L 27.472 40 Z M 48.984 40 L 48.984 35.52 L 49.824 34.96 L 49.824 17.04 L 48.984 17.04 L 48.424 17.88 L 43.944 17.88 L 43.944 12 L 60.744 12 L 60.744 17.88 L 56.264 17.88 L 55.704 17.04 L 54.864 17.04 L 54.864 34.96 L 55.704 35.52 L 55.704 40 L 48.984 40 Z M 64.656 40 L 64.656 35.52 L 65.496 34.96 L 69.136 17.04 L 68.296 16.48 L 68.296 12 L 78.936 12 L 78.936 16.48 L 78.096 17.04 L 81.736 34.96 L 82.576 35.52 L 82.576 40 L 77.616 40 L 76.376 33.84 L 70.856 33.84 L 69.616 40 L 64.656 40 Z M 71.896 28.8 L 75.336 28.8 L 73.616 20.24 Z M 90.008 40 L 86.408 16.96 L 85.688 16.48 L 85.688 12 L 90.728 12 L 93.248 28.12 L 95.768 12 L 100.528 12 L 103.048 28.12 L 105.568 12 L 110.608 12 L 110.608 16.48 L 109.888 16.96 L 106.288 40 L 99.808 40 L 98.168 29.4 L 96.488 40 L 90.008 40 Z M 113.72 40 L 113.72 35.52 L 114.56 34.96 L 118.2 17.04 L 117.36 16.48 L 117.36 12 L 128 12 L 128 16.48 L 127.16 17.04 L 130.8 34.96 L 131.64 35.52 L 131.64 40 L 126.68 40 L 125.44 33.84 L 119.92 33.84 L 118.68 40 L 113.72 40 Z M 120.96 28.8 L 124.4 28.8 L 122.68 20.24 Z M 148.784 40 L 145.064 36.28 L 145.064 15.72 L 148.784 12 L 157.584 12 L 161.304 15.72 L 161.304 20.96 L 156.264 20.96 L 156.264 17.8 L 155.504 17.04 L 150.864 17.04 L 150.104 17.8 L 150.104 34.2 L 150.864 34.96 L 155.504 34.96 L 156.264 34.2 L 156.264 31.04 L 161.304 31.04 L 161.304 36.28 L 157.584 40 L 148.784 40 Z M 169.736 40 L 166.016 36.28 L 166.016 15.72 L 169.736 12 L 178.816 12 L 182.536 15.72 L 182.536 36.28 L 178.816 40 L 169.736 40 Z M 171.816 34.96 L 176.736 34.96 L 177.496 34.2 L 177.496 17.8 L 176.736 17.04 L 171.816 17.04 L 171.056 17.8 L 171.056 34.2 Z M 187.248 40 L 187.248 35.52 L 188.088 34.96 L 188.088 17.04 L 187.248 16.48 L 187.248 12 L 193.448 12 L 197.608 22.6 L 201.768 12 L 207.968 12 L 207.968 16.48 L 207.128 17.04 L 207.128 34.96 L 207.968 35.52 L 207.968 40 L 201.248 40 L 201.248 35.52 L 202.088 34.96 L 202.088 25 L 199.608 31.32 L 195.608 31.32 L 193.128 25 L 193.128 34.96 L 193.968 35.52 L 193.968 40 L 187.248 40 Z M 212.68 40 L 212.68 35.52 L 213.52 34.96 L 213.52 17.04 L 212.68 16.48 L 212.68 12 L 225.48 12 L 229.2 15.72 L 229.2 26.48 L 225.48 30.2 L 218.56 30.2 L 218.56 34.96 L 219.4 35.52 L 219.4 40 L 212.68 40 Z M 218.56 25.16 L 223.4 25.16 L 224.16 24.4 L 224.16 17.8 L 223.4 17.04 L 218.56 17.04 L 218.56 25.16 Z M 238.472 40 L 234.752 36.28 L 234.752 17.04 L 233.912 16.48 L 233.912 12 L 240.632 12 L 240.632 16.48 L 239.792 17.04 L 239.792 34.2 L 240.552 34.96 L 245.192 34.96 L 245.952 34.2 L 245.952 17.04 L 245.112 16.48 L 245.112 12 L 251.832 12 L 251.832 16.48 L 250.992 17.04 L 250.992 36.28 L 247.272 40 L 238.472 40 Z M 261.584 40 L 261.584 35.52 L 262.424 34.96 L 262.424 17.04 L 261.584 17.04 L 261.024 17.88 L 256.544 17.88 L 256.544 12 L 273.344 12 L 273.344 17.88 L 268.864 17.88 L 268.304 17.04 L 267.464 17.04 L 267.464 34.96 L 268.304 35.52 L 268.304 40 L 261.584 40 Z M 278.056 40 L 278.056 35.52 L 278.896 34.96 L 278.896 17.04 L 278.056 16.48 L 278.056 12 L 292.616 12 L 292.616 17.88 L 288.136 17.88 L 287.576 17.04 L 283.936 17.04 L 283.936 23.48 L 290.376 23.48 L 290.376 28.52 L 283.936 28.52 L 283.936 34.96 L 287.576 34.96 L 288.136 34.12 L 292.616 34.12 L 292.616 40 L 278.056 40 Z M 307.528 40 L 307.528 35.52 L 308.248 35.04 L 306.848 29.64 L 303.208 29.64 L 303.208 34.96 L 304.048 35.52 L 304.048 40 L 297.328 40 L 297.328 35.52 L 298.168 34.96 L 298.168 17.04 L 297.328 16.48 L 297.328 12 L 310.128 12 L 313.848 15.72 L 313.848 25.92 L 311.688 28.12 L 313.408 34.8 L 314.408 35.52 L 314.408 40 L 307.528 40 Z M 303.208 24.6 L 308.048 24.6 L 308.808 23.84 L 308.808 17.8 L 308.048 17.04 L 303.208 17.04 L 303.208 24.6 Z M 322.48 40 L 318.76 36.28 L 318.76 31.04 L 323.8 31.04 L 323.8 34.2 L 324.56 34.96 L 328.64 34.96 L 329.4 34.2 L 329.4 29.28 L 328.64 28.52 L 322.48 28.52 L 318.76 24.8 L 318.76 15.72 L 322.48 12 L 330.72 12 L 334.44 15.72 L 334.44 20.96 L 329.4 20.96 L 329.4 17.8 L 328.64 17.04 L 324.56 17.04 L 323.8 17.8 L 323.8 22.72 L 324.56 23.48 L 330.72 23.48 L 334.44 27.2 L 334.44 36.28 L 330.72 40 L 322.48 40 Z&quot;);fill:rgb(17, 17, 17);height:auto;inline-size:auto;overflow-clip-margin:0px;overflow-x:visible;overflow-y:visible;perspective-origin:0px 0px;transform-origin:0px 0px;user-select:none;width:auto;"/></g></svg>